# xmcd
#
# Track frame offsets: 
#        150
#        4791
#        30331
#        37865
#        52554
#        60077
#        70355
#        93729
#        103787
#        120751
#        127846
#        132814
#        158160
#        170607
#        186795
#        193090
#        199431
#        223639
#        231329
#        249612
#        255782
#        262383
#        288348
#        297992
#        318830
#
# Disc length: 4307 seconds
#
# Revision: 0
# Processed by: cddbd v1.5.2PL0 Copyright (c) Steve Scherf et al.
# Submitted via: ExactAudioCopy v1.0b1
#
DISCID=5c10d119
DTITLE=Hank Williams - The Complete Mother's Best Recordings CD 12
DYEAR=2010
DGENRE=Country
TTITLE0=Introduction
TTITLE1=I’m So Lonesome I Could Cry
TTITLE2=Don Helms and the Drifting Cowboys: Corrine, Corrina
TTITLE3=I Heard My Savior Calling Me
TTITLE4=Closing
TTITLE5=Introduction
TTITLE6=If I Didn’t Love You
TTITLE7=Don Helms and the Drifting Cowboys: Panhandle Rag
TTITLE8=Wait for the Light to Shine
TTITLE9=Closing
TTITLE10=Introduction
TTITLE11=You Blotted My Happy School Days
TTITLE12=Jerry Rivers and the Drifting Cowboys: Orange Blossom Special
TTITLE13=Dust on the Bible
TTITLE14=Closing
TTITLE15=Introduction
TTITLE16=I’ve Been Down that Road Before
TTITLE17=Don Helms and the Drifting Cowboys: Gentle Annie
TTITLE18=I’ve Got My One-Way Ticket to the Sky
TTITLE19=Closing
TTITLE20=Introduction
TTITLE21=Hey Good Lookin’
TTITLE22=Jerry Rivers and the Drifting Cowboys: Alabama Jubilee
TTITLE23=Searching for a Soldier’s Grave
TTITLE24=Closing
EXTD=
EXTT0=
EXTT1=
EXTT2=
EXTT3=
EXTT4=
EXTT5=
EXTT6=
EXTT7=
EXTT8=
EXTT9=
EXTT10=
EXTT11=
EXTT12=
EXTT13=
EXTT14=
EXTT15=
EXTT16=
EXTT17=
EXTT18=
EXTT19=
EXTT20=
EXTT21=
EXTT22=
EXTT23=
EXTT24=
PLAYORDER=
